<svg width="285" height="285" xmlns="http://www.w3.org/2000/svg"><g transform="matrix(1.01786 0 0 1.01786 -37.99 -760.775)"><rect y="747.893" x="37.788" height="279.07" width="279.07" style="fill:#cc0001;fill-opacity:1;stroke:#cc0001;stroke-width:.930173;stroke-miterlimit:4;stroke-dasharray:none;stroke-opacity:1" ry="58"/><rect ry="40" y="770.24" x="60.135" height="234.375" width="234.375" style="fill:#fff;fill-opacity:1;stroke:#fff;stroke-width:.781251;stroke-opacity:1"/><rect style="fill:#cc0001;fill-opacity:1;stroke:#fff;stroke-width:.72338;stroke-opacity:1" width="217.014" height="217.014" x="68.816" y="778.921" ry="35"/><path d="M212.207 897.69c0-2.918 8.681-11.386 14.329-13.978 6.648-3.05 6.967-7.522.599-8.377-5.694-.765-8.286-3.164-8.286-7.67 0-3.292-.8-3.817-5.811-3.817-3.197 0-5.812-.695-5.812-1.544 0-4.088 27.509-7.402 35.7-4.3 3.28 1.24 3.28 1.285.098 3.55-1.773 1.262-6.498 2.294-10.5 2.294-6.033 0-7.182.48-6.726 2.81.38 1.94 2.405 2.96 6.537 3.295 4.503.365 6.453 1.477 7.873 4.491 3.074 6.524 2.262 8.422-5.17 12.078-3.88 1.909-9.655 5.536-12.831 8.06-5.772 4.588-10 5.902-10 3.108zm54.236-17.767c-6.417-7.375-9.403-19.85-9.403-39.282 0-24.784-4.895-32.434-14.944-23.357-2.833 2.559-6.607 5.1-8.387 5.646-6.012 1.845-3.29 3.988 5.066 3.988 4.596 0 8.302.74 8.302 1.656 0 1.816-.895 2.198-11.032 4.704-5.223 1.29-7.131 2.664-7.92 5.699-1.328 5.119-3.939 5.112-5.955-.016-1.474-3.75-6.642-5.756-6.642-2.579 0 3.081-9.823 11.41-13.456 11.41-3.545 0-3.352-.466 2.663-6.423 5.99-5.932 6.196-6.423 2.69-6.423-6.081 0-3.173-3.856 4.078-5.408 3.584-.766 7.45-1.647 8.592-1.956 1.308-.355 2.075-3.55 2.075-8.642 0-8.884 2-10.321 5.464-3.928l2.249 4.15 5.245-4.268 5.246-4.268-7.026-5.183-7.027-5.183-11.623 6.583c-15.545 8.805-17.491 12.745-19.25 38.973-1.632 24.329-2.419 28.12-6.591 31.771-4.306 3.768-5.683 2.046-3.409-4.263 1.019-2.826 1.86-14.243 1.869-25.37.015-17.865.472-21.173 3.916-28.261 4.606-9.484 7.296-11.996 18.835-17.589 5.186-2.514 9.52-5.942 10.815-8.556 2.7-5.446 4.846-5.467 7.52-.074 2.085 4.209 12.338 9.36 18.63 9.36 5.56 0 11.632 3.58 14.995 8.84 2.822 4.417 3.214 7.784 3.001 25.817-.257 21.771 2.503 36.732 7.704 41.761 1.414 1.368 2.572 3.158 2.572 3.978 0 3.112-4.851 1.302-8.862-3.307zm-57.557-28.2c0-1.785 11.684-5.537 17.246-5.537 8.374 0 11.526 1.446 9.16 4.201-1.307 1.524-5.752 2.221-14.155 2.221-6.738 0-12.25-.398-12.25-.884zm32.322-8.651c-4.406-1.752-7.999-5.981-6.064-7.138 2.272-1.358 15.442 4.087 14.75 6.098-.786 2.28-4.46 2.72-8.686 1.04zM208.15 823.35c-3.21-4.433-3.268-6.066-.212-6.066 3.058 0 7.59 4.383 7.59 7.34 0 3.505-4.476 2.731-7.378-1.274z" style="fill:#fff;fill-opacity:1;stroke-width:.456619"/><path d="M234.02 978.045c-3.353-5.645-1.524-18.344-7.308-21.512-.521-.266-.979-.45-1.017-.407-.038.042-.952 1.84-2.03 3.996-3.073 5.771-6.648 11.563-11.257 15.966-8.236 6.674-13.867 8.285-22.084 3.782-10.551-6.564-8.84-20.033-10.44-30.029-.354-2.053-.307-4.48.1-5.115 5.445-3.314 6.275 7.78 6.932 10.396 2.237.437 5.408.542 7.954.876 1.14-3.968 1.525-6.116 2.052-9.323-10.317-5.119-14.365-8.933-15.371-19.92-.102-2.812 3.064-2.855 3.92-2.016 1.78 6.736 6.637 13.652 12.082 14.828 1.334.182 1.846-.206 2.378-1.804.624-1.878.383-2.365-2.53-5.094-4.232-3.156-4.036-11.804-6.301-14.932-3.821-.127-8.615-.01-9.584-1.118-.386-.52-.386-2.732 0-3.206 11.223-5.589 25.273-5.325 36.067-4.664 3.936.99 5.635 1.057 5.008 4.979-2.39 1.219-4.418 1.736-5.971 2.868-2.492 4.562-3.12 12.172-6.544 15.65-3.253 3.056-3.395 4.032-3.866 7.741 4.671 2.422 9.61-2.512 12.806-1.947.42.59 1.107 2.093 1.04 2.279-4.192 5.172-10.359 6.396-16.393 7.75-.612 2.658-1.267 6.1-1.794 8.597 3.564.528 14.403 1.311 16.044 1.521 1.791-1.966 3.459-4.019 5.07-6.125-.2-1.534-1.11-3.952-.344-4.977 1.339-.82 3.206-1.066 4.535-.024 1.213 1.014 2.325 1.12 5.91.559 5.046-.789 3.895-.526 5.221-2.53 3.077-4.792 6.477-10.354 8.704-14.64-2.827-4.69-4.701-8.106-7.55-12.935-2.77-4.677-3.65-7.193-5.954-7.977-4.138.276-5.673 1.151-7.218-2.854 0-2.144.528-2.53 4.091-2.99 1.095-.14 4.484-.702 7.532-1.246 7.732-.612 16.21-1.256 23.993-.769 9.479.594 9.099.49 10.263 2.798 1.092 3.163 1.476 10.103-2.429 6.569-3.513-2.413-5.007-3.904-8.813-3.053-.266 2.93 1.567 4.914 3.09 7.182-3.11 5.581-7.02 11.32-9.797 16.076 2.574 4.511 7.49 13.44 9.183 16.288 2.438.105 6.049.478 8.013.677 2.224.887 4.432 3.679.432 13.94-3.217 8.252-8.538 15.88-15.636 20.715-7.83 4.361-19.246.54-22.19-4.826zm20.896-3.066c2.829-1.932 3.34-2.854 4.202-5.725-3.772.51-13.775.95-20.192 1.832 2.851 7.207 11.849 6.75 15.99 3.893zm-41.854-9.068c2.53-4.46-1.113-3.796-3.686-3.894-8.451-.05-14.12 1.7-21.035 1.167-.21 7.814 4.454 10.312 9.45 11.23 7.983-.836 11.125-2.632 15.271-8.503zm51.883-4.112c1.066-1.014 4.043-6.777 3.392-7.275-10.065-.118-23.53.374-32.046 1.137.704 2.917.737 6.012 1.032 8.403 8.908-.516 20.022-2.265 27.622-2.265zm-12.52-14.794c1.325-1.085 2.132-2.503 1.9-4.26-.203-1.351-1.744-4.215-2.63-4.89-1.516-1.155-1.66-1.073-4.876 2.807-1.757 1.317-4.316 6.343-1.737 6.619 2.465.344 5.448 1.03 7.343-.276zm-43.093-31.164c-4.684-.11-8.132.03-13.268.83.793 3.144 5.898 13.048 8.151 13.006 3.275-2.735 5.127-9.081 5.117-13.836zm48.926-3.863c-1.03-2.247-5.147-4.798-8.126-4.824-3.439.369-5.157 1.764-7.421 3.795 3.047 5.701 3.83 6.965 7.4 13.011 2.6-4.051 5.854-8.553 8.147-11.982zm-69.377-7.42c-1.642-2.689-.897-3.895.819-4.892 7.681-2.437 18.093-4.087 24.408-2.976 2.367.42 3.031.726 4.024 1.856.722.821 1.195 2.25.902 2.725-8.556.813-15.613 2.142-23.1 3.122-4.432.568-6.674.62-7.053.164z" style="fill:#fff;fill-opacity:1;stroke-width:.23832"/><path d="M104.542 896.96c0-.975 3.438-4.553 7.639-7.951l7.638-6.178-6.433-3.017c-7.649-3.587-16.452-14.76-13.617-17.283 1.333-1.187 3.422.07 7.78 4.682 4.314 4.565 7.183 6.304 10.402 6.304 8.674 0 7.302-7.181-2.205-11.543-4.597-2.11-5.64-3.479-6.045-7.941-.398-4.382.323-5.98 3.849-8.53 2.386-1.725 5.693-3.137 7.348-3.137 3.86 0 3.803-1.64-.217-6.338-1.776-2.074-3.228-5.792-3.228-8.262 0-6.215-2.682-12.1-5.513-12.1-1.301 0-2.656.5-3.01 1.112-.918 1.584 1.3 19.886 2.785 22.992 1.97 4.118-3.421 3.227-6.486-1.072-1.996-2.8-2.35-5.435-1.5-11.126 1.263-8.435-.673-9.795-5.1-3.584-2.21 3.1-2.833 7.912-3.123 24.105-.51 28.572-5.47 46.192-13 46.192-2.763 0-2.78-2.956-.037-6.716 4.837-6.632 6.449-19.296 5.321-41.806-.922-18.4-.703-22.455 1.357-25.137 2.952-3.844 20.098-14.816 24.323-15.564 2.149-.38 3.493-2.644 4.716-7.944 1.99-8.623 6.05-10.164 7.336-2.785 1.086 6.23 8.47 11.559 19.366 13.98 11.92 2.648 20.53 6.68 21.738 10.18.546 1.582.14 7.38-.903 12.883-2.667 14.08-1.041 40.492 3.187 51.783 3.914 10.45 4.172 12.784 1.302 11.771-2.983-1.052-10.847-16.232-13.235-25.547-1.533-5.982-1.615-12.246-.343-26.416 1.928-21.486 2.766-19.822-14.167-28.14-6.213-3.052-12.444-6.204-13.846-7.005-1.815-1.036-3.785-.712-6.828 1.12-3.435 2.07-3.964 3.114-2.686 5.31.875 1.502 2.313 3.142 3.196 3.643.883.502 1.608 3.71 1.611 7.13.007 7.022 4.165 14.283 11.372 19.857 3.575 2.765 4.76 4.954 4.76 8.792 0 4.267-.93 5.615-5.648 8.173-5.59 3.032-7.755 8.815-4.082 10.902 2.58 1.465 10.594-3.182 15.836-9.182 5.736-6.568 7.361-6.119 5.1 1.409-2.03 6.76-9.05 12.294-17.108 13.487-5.272.78-6.76 1.89-9.927 7.404-4.713 8.204-19.675 16.64-19.675 11.094zm28.07-41.614c2.265-3.322-.402-7.6-5.142-8.25-7.212-.99-15.614 8.31-9.614 10.64 4.129 1.604 13.016.164 14.757-2.39zm8.811-14.856c-3.237-2.64-6.686-7.068-7.665-9.841-2.037-5.769-2.364-13.511-.57-13.477 3.266.06 5.291 2.997 6.938 10.056 1.183 5.07 3.432 9.237 6.512 12.069 8.359 7.683 3.974 8.686-5.215 1.193z" style="fill:#fff;fill-opacity:1;stroke-width:.485876"/><g style="fill:#fff;fill-opacity:1;stroke:none"><path style="fill:#fff;fill-opacity:1" d="M367 634c-4-4-7-27-7-51 0-37-3-44-17-41-12 2-19 14-21 33-2 17-8 34-12 39-16 16-40-15-40-51 0-30-3-34-22-31-16 2-24 12-29 36-8 40-14 46-33 39-12-5-15-39-16-193 0-103-3-190-5-194-3-4-18-10-35-13-21-5-30-12-30-27 0-19 6-20 95-20h95v-30c0-37-16-45-100-54-69-7-92-18-72-38 9-9 29-9 89 1 97 15 126 35 133 87 5 37 7 39 41 42 38 3 49-10 49-65 0-34 31-44 128-41 79 3 87 5 87 23s-7 20-60 21c-106 1-105 1-105 33v28l84 7c95 7 116 13 116 31 0 15-22 25-57 25h-25l7 193c6 172 6 194-9 206-21 18-25 13-34-40-6-34-12-44-27-44s-21 9-26 38c-7 44-13 52-34 44-10-4-15-20-15-47 0-36-3-40-24-40-23 0-25 5-28 47-2 34-8 49-18 51-9 1-19 0-23-4zm193-179c0-41-2-45-25-45-22 0-25 4-25 39 0 22 5 42 13 44 31 13 37 6 37-38zm-100-10c0-41-2-45-25-45-22 0-25 4-25 38 0 43 5 52 32 52 15 0 18-8 18-45zm-192-7c-2-36-7-44-25-46-21-3-23 1-23 42 0 43 2 46 26 46 23 0 25-3 22-42zm90-1c3-32 0-37-17-37-18 0-21 6-21 41 0 33 3 40 18 37 12-2 18-14 20-41zm100-154c3-62 2-63-23-63-24 0-25 2-25 66 0 62 1 65 23 62 20-3 22-9 25-65zm100 5c-2-52-6-63-22-66-26-5-36 15-36 76 0 51 0 52 30 52h31zm-278-1c0-58-12-77-47-77-22 0-23 4-23 65v65h70zm80-7c0-53-2-60-20-60s-20 7-20 60 2 60 20 60 20-7 20-60z" transform="matrix(.16268 0 0 -.147 67.608 988.675)"/></g></g></svg>