<?xml version="1.0" standalone="no"?>
<!DOCTYPE svg PUBLIC "-//W3C//DTD SVG 20010904//EN"
 "http://www.w3.org/TR/2001/REC-SVG-20010904/DTD/svg10.dtd">
<svg version="1.0" xmlns="http://www.w3.org/2000/svg"
 width="700.000000pt" height="700.000000pt" viewBox="0 0 700.000000 700.000000"
 preserveAspectRatio="xMidYMid meet">
<metadata>
Created by potrace 1.14, written by Peter Selinger 2001-2017
</metadata>
<g transform="translate(0.000000,700.000000) scale(0.100000,-0.100000)"
fill="#000000" stroke="none">
<path d="M1280 6993 c-201 -32 -344 -78 -498 -158 -138 -72 -246 -151 -356
-261 -212 -212 -357 -491 -407 -782 -18 -111 -19 -181 -19 -2292 0 -2111 1
-2181 19 -2292 36 -207 132 -435 258 -610 74 -102 219 -248 322 -322 160 -115
378 -211 576 -252 87 -18 172 -19 2325 -19 2110 0 2240 1 2320 18 292 61 550
200 753 403 203 202 343 463 403 749 18 87 19 172 19 2325 0 2153 -1 2238 -19
2325 -27 128 -79 274 -141 393 -200 385 -545 647 -990 755 l-90 21 -2225 2
c-1224 1 -2236 0 -2250 -3z m4231 -563 c144 -14 245 -42 364 -100 196 -96 358
-259 455 -454 58 -120 86 -221 100 -365 14 -144 14 -3878 0 -4022 -14 -144
-42 -245 -100 -365 -97 -195 -259 -358 -455 -454 -119 -58 -220 -86 -364 -100
-144 -14 -3878 -14 -4022 0 -144 14 -245 42 -365 100 -195 97 -358 259 -454
455 -58 118 -87 223 -100 360 -12 132 -12 3898 0 4030 13 137 42 242 100 360
153 310 464 525 805 555 129 11 3914 11 4036 0z"/>
<path d="M1548 6199 c-360 -53 -634 -297 -730 -649 l-23 -85 0 -1965 0 -1965
23 -85 c87 -319 322 -552 640 -633 l87 -22 1955 0 1955 0 87 22 c320 82 559
320 640 638 l23 90 0 1955 0 1955 -23 90 c-80 316 -315 552 -635 638 l-82 22
-1930 1 c-1062 1 -1956 -2 -1987 -7z m3183 -286 c9 -10 24 -33 33 -51 40 -79
175 -172 323 -221 35 -12 107 -26 160 -31 79 -8 112 -17 169 -45 80 -39 165
-116 207 -187 55 -95 59 -125 67 -613 8 -480 19 -610 66 -794 30 -118 69 -202
122 -264 60 -69 75 -100 58 -122 -18 -24 -63 -13 -123 32 -204 153 -313 491
-313 977 -1 424 -50 677 -144 735 -67 42 -124 22 -266 -93 -55 -45 -130 -94
-177 -117 -141 -67 -110 -95 120 -109 146 -9 207 -23 207 -46 0 -25 -57 -50
-203 -89 -208 -55 -233 -71 -277 -177 -42 -103 -72 -104 -127 -2 -47 88 -113
138 -158 120 -16 -6 -19 -13 -29 -56 -13 -62 -196 -222 -290 -254 -41 -14 -86
-10 -86 8 0 6 54 68 120 138 66 70 120 134 120 142 0 16 -30 26 -81 26 -20 0
-42 7 -49 15 -10 12 -7 19 15 39 36 34 104 58 258 91 159 35 156 31 169 225
11 162 22 210 47 210 25 0 52 -33 102 -122 l42 -77 28 22 c166 133 238 193
238 197 0 5 -335 252 -350 258 -10 4 -357 -192 -451 -255 -93 -62 -182 -159
-218 -235 -60 -129 -85 -279 -115 -708 -28 -395 -52 -566 -92 -645 -33 -65
-127 -143 -159 -131 -19 7 -18 38 5 122 33 118 41 213 51 629 6 220 15 435 21
479 23 176 139 409 256 516 58 53 135 101 273 170 169 85 248 151 319 269 38
62 73 70 112 24z m-2562 2 c11 -14 24 -48 30 -76 38 -176 210 -301 511 -370
209 -48 409 -130 480 -198 l40 -38 0 -85 c0 -46 -11 -160 -24 -254 -14 -93
-27 -230 -31 -304 -11 -238 24 -658 71 -845 8 -33 37 -125 63 -205 55 -164 64
-200 51 -220 -8 -13 -13 -13 -37 0 -47 26 -101 108 -188 285 -140 284 -167
389 -166 645 0 91 10 267 21 393 11 125 20 260 20 300 0 178 -19 196 -439 406
-176 89 -331 161 -343 161 -13 0 -48 -12 -78 -26 -147 -68 -157 -115 -49 -229
42 -44 58 -95 59 -185 1 -176 100 -356 278 -503 99 -82 122 -124 122 -226 0
-98 -14 -121 -113 -185 -85 -55 -141 -109 -158 -153 -16 -43 -11 -95 13 -120
63 -67 227 15 424 214 62 62 117 113 123 113 20 0 23 -27 11 -87 -20 -98 -62
-173 -137 -244 -85 -80 -172 -123 -300 -150 -145 -31 -163 -44 -248 -179 -83
-130 -238 -260 -371 -309 -81 -31 -114 -26 -114 16 0 34 79 114 239 243 71 58
130 108 130 112 1 4 -50 32 -111 62 -127 61 -220 132 -297 228 -87 106 -120
190 -86 218 28 23 65 0 178 -108 126 -121 162 -146 230 -162 58 -13 132 2 164
32 33 31 31 87 -4 130 -45 54 -73 75 -166 124 -103 55 -131 85 -146 154 -25
115 -9 176 61 233 53 43 163 97 200 97 44 0 78 17 78 40 0 28 -14 52 -70 125
-53 70 -73 130 -88 262 -13 115 -56 214 -104 239 -43 22 -105 5 -114 -32 -13
-52 22 -367 56 -504 23 -94 23 -93 21 -107 -3 -35 -105 7 -144 59 -63 84 -68
115 -53 333 8 109 7 122 -9 138 -16 17 -19 17 -44 1 -57 -37 -106 -114 -128
-204 -7 -30 -18 -152 -23 -270 -26 -546 -31 -642 -45 -745 -39 -290 -97 -472
-181 -565 -58 -64 -137 -77 -150 -24 -6 25 2 44 80 186 20 37 48 109 61 160
42 166 49 295 39 703 -11 473 -10 640 5 692 14 51 70 108 196 198 133 95 332
212 414 242 62 23 75 32 96 67 13 23 33 79 46 126 46 176 98 237 148 175z
m287 -681 c39 -26 70 -89 109 -224 45 -154 72 -205 155 -295 89 -95 120 -134
120 -151 0 -61 -233 88 -334 215 -87 108 -120 194 -132 343 -10 117 18 154 82
112z m1896 -21 c73 -50 119 -148 86 -181 -45 -45 -154 31 -209 145 -18 36 -19
46 -8 59 19 23 81 12 131 -23z m750 -454 c113 -39 208 -95 208 -124 0 -8 -11
-22 -25 -31 -33 -22 -133 -15 -198 14 -90 40 -170 135 -139 166 10 11 81 0
154 -25z m-260 -239 c86 -13 118 -27 118 -55 0 -32 -32 -56 -97 -72 -64 -15
-440 -21 -528 -8 -48 8 -49 8 -27 26 30 23 139 64 237 88 131 32 190 36 297
21z m283 -284 c78 -25 85 -32 55 -56 -70 -57 -147 -78 -315 -87 -138 -7 -155
-13 -155 -53 0 -17 4 -40 10 -50 13 -24 76 -46 168 -60 119 -17 155 -45 198
-150 49 -121 23 -167 -139 -251 -111 -57 -213 -121 -330 -206 -54 -39 -103
-73 -109 -75 -8 -3 -5 -14 10 -33 28 -35 28 -53 0 -59 -77 -15 -641 -86 -679
-86 -39 0 -47 4 -57 25 -30 65 -8 86 119 120 128 34 275 55 386 55 l92 0 29
43 c64 92 219 222 350 292 65 35 102 77 102 115 0 44 -33 68 -122 87 -141 30
-182 69 -196 187 -5 37 -14 72 -20 78 -6 6 -58 15 -115 19 -106 8 -157 21
-157 38 0 37 170 92 361 116 153 19 444 14 514 -9z m-2743 -966 c10 -19 22
-80 28 -135 19 -171 29 -185 124 -185 76 0 96 25 96 124 1 84 15 154 37 178
24 27 80 34 103 13 22 -20 31 -47 55 -158 21 -98 50 -137 104 -137 70 0 90 32
127 205 30 142 51 161 118 103 65 -58 67 -112 31 -968 -8 -190 -15 -379 -15
-421 l0 -76 114 -5 c131 -6 201 -30 212 -74 12 -49 -31 -74 -163 -93 -69 -11
-560 -51 -615 -51 l-28 0 0 -95 c0 -133 -14 -126 304 -137 138 -5 270 -11 294
-14 53 -7 79 -39 65 -81 -14 -43 -72 -53 -343 -60 -333 -8 -468 14 -503 84 -8
15 -17 64 -20 108 -9 150 -49 195 -170 195 -38 0 -88 -5 -113 -11 -54 -14 -68
-36 -89 -145 -30 -160 -100 -222 -308 -275 -112 -28 -396 -69 -484 -69 -65 0
-76 3 -103 28 -71 63 -2 93 300 127 276 31 354 56 385 121 9 20 15 61 15 112
l0 80 -357 4 c-246 3 -367 7 -385 16 -24 10 -28 17 -28 51 0 48 26 72 97 91
135 35 153 41 163 61 8 13 14 217 21 599 9 570 18 738 42 789 9 20 21 27 50
29 50 4 61 -6 81 -76 40 -134 51 -156 85 -179 40 -27 112 -31 131 -8 7 9 16
54 21 100 8 93 34 154 81 188 53 40 92 -3 118 -130 13 -60 32 -107 50 -118 6
-4 24 -10 41 -15 52 -15 66 10 73 136 13 204 18 217 95 212 41 -3 48 -6 63
-38z m3440 -153 c39 -16 54 -49 59 -127 7 -111 -8 -119 -100 -55 -70 48 -129
68 -168 58 -35 -8 -30 -58 13 -128 l35 -59 -22 -41 c-13 -22 -67 -112 -122
-200 l-100 -159 20 -36 c11 -19 63 -112 117 -206 l96 -171 102 -8 c93 -6 104
-9 130 -35 25 -25 28 -35 28 -94 0 -250 -274 -675 -490 -760 -106 -42 -264
-27 -382 36 -112 59 -143 119 -178 343 -12 77 -31 163 -41 191 -21 54 -72 114
-98 114 -10 0 -35 -36 -68 -98 -155 -293 -324 -470 -507 -534 -131 -45 -301 4
-405 117 -86 94 -129 225 -151 460 -5 66 -15 159 -21 207 -14 102 -8 135 25
144 57 14 98 -47 125 -185 l17 -86 40 -6 c21 -4 68 -9 103 -10 l65 -4 17 70
c10 39 21 93 24 120 l6 50 -73 37 c-192 98 -282 222 -304 417 -8 72 3 91 51
91 30 0 35 -4 45 -37 24 -74 92 -192 140 -242 47 -49 135 -101 172 -101 23 0
51 44 51 81 0 23 -13 44 -55 87 -69 70 -80 92 -117 230 -47 172 -35 159 -161
164 -122 4 -143 13 -138 62 4 36 30 52 153 90 158 50 250 61 515 61 251 0 300
-6 343 -43 9 -8 17 -29 17 -46 0 -29 -5 -33 -74 -64 -83 -38 -91 -49 -136
-202 -35 -115 -74 -194 -123 -247 -53 -58 -62 -75 -72 -132 -5 -32 -4 -46 6
-52 28 -18 109 -9 191 21 100 37 115 37 130 4 12 -25 10 -29 -35 -70 -61 -55
-129 -87 -259 -122 l-103 -27 -22 -105 c-13 -57 -20 -107 -15 -111 4 -4 94
-15 200 -25 l192 -17 26 24 c14 13 43 47 65 76 40 52 41 53 34 112 -6 53 -5
60 13 70 31 17 67 13 112 -10 38 -20 46 -20 121 -9 45 6 91 15 103 20 12 4 53
60 97 131 129 210 161 270 156 289 -9 35 -262 463 -290 491 -27 27 -34 29 -99
27 -66 -1 -73 0 -94 26 -29 33 -32 81 -6 95 27 14 247 50 370 61 59 5 233 7
387 6 228 -3 287 -6 317 -19z"/>
<path d="M2122 4490 c-111 -50 -182 -147 -156 -215 17 -43 127 -64 244 -46
137 22 196 65 194 142 -3 111 -157 176 -282 119z"/>
<path d="M2933 2800 c-82 -19 -103 -60 -103 -196 0 -103 14 -125 86 -131 70
-7 101 8 113 54 20 70 9 240 -16 263 -15 14 -47 18 -80 10z"/>
<path d="M2477 2763 c-31 -8 -50 -63 -55 -154 -5 -99 9 -155 40 -165 39 -12
131 -5 147 11 23 23 29 228 7 278 -15 36 -16 37 -68 36 -29 -1 -61 -3 -71 -6z"/>
<path d="M1700 2731 c-42 -12 -51 -44 -48 -179 3 -145 11 -158 87 -147 62 9
70 14 87 47 17 33 34 199 24 238 -11 43 -78 61 -150 41z"/>
<path d="M2072 2713 c-27 -52 -20 -229 10 -259 10 -10 34 -16 64 -16 68 0 77
16 71 118 -7 92 -25 147 -55 163 -32 17 -80 13 -90 -6z"/>
<path d="M2815 2235 c-24 -23 -25 -29 -25 -159 0 -164 12 -230 50 -268 53 -52
145 -32 168 36 12 37 32 264 32 369 l0 47 -100 0 c-94 0 -103 -2 -125 -25z"/>
<path d="M2439 2234 c-16 -19 -26 -277 -15 -368 10 -80 22 -91 100 -91 99 0
101 4 99 176 -4 249 -24 299 -122 299 -33 0 -53 -5 -62 -16z"/>
<path d="M1610 2016 c0 -199 7 -251 33 -268 26 -17 129 -8 168 14 68 38 88
111 89 316 l0 142 -145 0 -145 0 0 -204z"/>
<path d="M2086 2207 c-41 -30 -43 -374 -2 -415 22 -22 91 -22 112 0 38 38 37
387 -1 415 -24 17 -86 17 -109 0z"/>
<path d="M5270 3001 c-36 -11 -80 -37 -113 -64 l-28 -24 67 -119 c37 -65 78
-138 92 -162 13 -24 28 -42 33 -40 4 2 53 69 108 150 l101 147 -29 33 c-55 63
-166 100 -231 79z"/>
<path d="M4020 2781 c-30 -4 -46 -11 -48 -22 -2 -9 22 -66 53 -127 57 -112
123 -197 147 -190 20 7 74 92 98 156 12 31 24 87 27 124 l6 68 -119 -2 c-65 0
-139 -4 -164 -7z"/>
<path d="M5245 2183 c-74 -86 -98 -144 -72 -170 20 -20 150 -30 189 -14 33 12
68 65 68 101 -1 56 -68 160 -104 160 -9 0 -45 -34 -81 -77z"/>
<path d="M5355 1820 c-99 -4 -227 -11 -283 -15 -99 -7 -103 -8 -98 -29 3 -11
9 -55 12 -98 4 -42 10 -82 14 -88 7 -11 123 -2 630 48 l75 7 37 73 c59 114 61
112 -84 110 -68 -1 -204 -4 -303 -8z"/>
<path d="M4065 1624 c-66 -7 -160 -13 -209 -13 l-89 -1 7 -56 c13 -110 80
-188 185 -218 53 -15 65 -15 137 -1 109 21 172 54 240 127 85 92 104 158 51
172 -35 9 -191 5 -322 -10z"/>
<path d="M5300 1439 c-228 -20 -260 -25 -260 -38 0 -4 13 -27 30 -49 113 -156
419 -100 475 86 5 17 3 22 -12 21 -10 -1 -115 -10 -233 -20z"/>
</g>
</svg>
